<svg id="prefix__Layer_81" data-name="Layer 81" xmlns="http://www.w3.org/2000/svg" viewBox="0 0 50 50"><defs><style>.prefix__cls-2{fill:none;stroke:#3f464a;stroke-linecap:round;stroke-miterlimit:10}.prefix__cls-5,.prefix__cls-6{stroke-width:0}.prefix__cls-5{fill:#fff}.prefix__cls-6{fill:#ffe8bb}</style></defs><circle cx="25.03" cy="25" r="24.4" fill="#7edff1" stroke-width="0"/><path d="M25.03.6c-5.65 0-10.84 1.92-14.98 5.14 3.54-2 7.62-3.14 11.98-3.14 13.48 0 24.4 10.92 24.4 24.4 0 7.83-3.69 14.79-9.43 19.26C44.42 42.07 49.43 34.13 49.43 25 49.43 11.52 38.5.6 25.03.6z" stroke-width="0" fill="#4ed0dd"/><path class="prefix__cls-2" d="M25.02.6C38.5.6 49.42 11.52 49.42 25S38.5 49.4 25.02 49.4.62 38.48.62 25"/><path d="M.62 25C.62 11.52 11.54.6 25.02.6" fill="none" stroke="#3f464a" stroke-linecap="round" stroke-miterlimit="10" stroke-dasharray="0 0 4 3"/><circle class="prefix__cls-5" cx="25.02" cy="12.71" r="3.67"/><path class="prefix__cls-6" d="M25.02 9.04c-.35 0-.68.06-1 .16 1.54.44 2.67 1.84 2.67 3.51s-1.13 3.08-2.67 3.51c.32.09.65.16 1 .16 2.03 0 3.67-1.64 3.67-3.67s-1.64-3.67-3.67-3.67z"/><path class="prefix__cls-5" d="M25 19.12c1.8 0 3.26 1.46 3.26 3.26v16.31a3.26 3.26 0 01-6.52 0V22.38c0-1.8 1.46-3.26 3.26-3.26z"/><path class="prefix__cls-6" d="M25 19.12c-.35 0-.68.07-1 .17 1.31.42 2.26 1.64 2.26 3.08v16.31c0 1.45-.95 2.66-2.26 3.08.32.1.65.17 1 .17 1.8 0 3.26-1.46 3.26-3.26V22.36c0-1.8-1.46-3.26-3.26-3.26z"/><path class="prefix__cls-2" d="M25 19.12c1.8 0 3.26 1.46 3.26 3.26v16.31a3.26 3.26 0 01-6.52 0V22.38c0-1.8 1.46-3.26 3.26-3.26z"/><circle class="prefix__cls-2" cx="25.02" cy="12.71" r="3.67"/></svg>