<?xml version="1.0" encoding="UTF-8"?><svg id="Data_Reporting" xmlns="http://www.w3.org/2000/svg" viewBox="0 0 50 50"><rect x="5.49" y=".52" width="39.02" height="48.97" rx="2.19" ry="2.19" fill="#ff926a" stroke-width="0"/><rect x="40.35" y="1" width="3.9" height="48.19" fill="#fd7251" stroke-width="0"/><path d="m7.69.52h34.73c1.19,0,2.15.96,2.15,2.15v44.67c0,1.19-.96,2.15-2.15,2.15H7.69c-1.19,0-2.15-.96-2.15-2.15V2.66" fill="none" stroke="#3f464a" stroke-linecap="round" stroke-miterlimit="10"/><rect x="8.91" y="3.76" width="32.17" height="41.81" rx="1.21" ry="1.21" fill="#fff" stroke-width="0"/><rect x="37.28" y="4.41" width="3.29" height="40.65" fill="#ffe8bb" stroke-width="0"/><path d="m40.13,4.76c.11,0,.21.09.21.21v39.4c0,.11-.09.21-.21.21H9.87c-.11,0-.21-.09-.21-.21V4.96c0-.11.09-.21.21-.21h30.26m0-1H9.87c-.67,0-1.21.54-1.21,1.21v39.4c0,.67.54,1.21,1.21,1.21h30.26c.67,0,1.21-.54,1.21-1.21V4.96c0-.67-.54-1.21-1.21-1.21h0Z" fill="#3f464a" stroke-width="0"/><rect x="12.57" y="3.76" width="24.72" height="4.86" fill="#fff" stroke-width="0"/><path d="m34.62,1.52v2.27H15.39V1.52h19.23m1-1H14.39v4.27h21.23V.52h0Z" fill="#1a1a1a" stroke-width="0"/><path d="m16.48,8.12c-.88,0-1.59-.71-1.59-1.59v-2.27h20.23v2.27c0,.88-.71,1.59-1.59,1.59h-17.05Z" fill="#fff" stroke-width="0"/><path d="m34.62,4.76v1.77c0,.6-.49,1.09-1.09,1.09h-17.05c-.6,0-1.09-.49-1.09-1.09v-1.77h19.23m1-1H14.39v2.77c0,1.15.94,2.09,2.09,2.09h17.05c1.15,0,2.09-.94,2.09-2.09v-2.77h0Z" fill="#3f464a" stroke-width="0"/><rect x="14.89" y=".53" width="20.23" height="3.76" fill="#c5e7eb" stroke-width="0"/><path d="m34.62,1.03v2.76H15.39V1.03h19.23M35.62.03H14.39v4.76h21.23V.03h0Z" fill="#3f464a" stroke-width="0"/><rect x="32.14" y="1" width="2.5" height="2.79" fill="#a9cbcc" stroke-width="0"/><path d="m16.61,13.12v3.04h-3.04v-3.04h3.04m1-1h-5.04v5.04h5.04v-5.04h0Z" fill="#3f464a" stroke-width="0"/><path d="m16.61,24.01v3.04h-3.04v-3.04h3.04m1-1h-5.04v5.04h5.04v-5.04h0Z" fill="#3f464a" stroke-width="0"/><path d="m16.61,34.9v3.04h-3.04v-3.04h3.04m1-1h-5.04v5.04h5.04v-5.04h0Z" fill="#3f464a" stroke-width="0"/><line x1="21.62" y1="13.42" x2="37.28" y2="13.42" fill="none" stroke="#3f464a" stroke-linecap="round" stroke-miterlimit="10"/><line x1="21.62" y1="24.3" x2="37.28" y2="24.3" fill="none" stroke="#3f464a" stroke-linecap="round" stroke-miterlimit="10"/><line x1="21.62" y1="35.21" x2="37.28" y2="35.21" fill="none" stroke="#3f464a" stroke-linecap="round" stroke-miterlimit="10"/><line x1="21.62" y1="15.85" x2="29.45" y2="15.85" fill="none" stroke="#3f464a" stroke-linecap="round" stroke-miterlimit="10"/><line x1="21.62" y1="26.73" x2="29.45" y2="26.73" fill="none" stroke="#3f464a" stroke-linecap="round" stroke-miterlimit="10"/><line x1="21.62" y1="37.64" x2="29.45" y2="37.64" fill="none" stroke="#3f464a" stroke-linecap="round" stroke-miterlimit="10"/><line x1="6.07" y1="1.2" x2="6.07" y2="1.2" fill="none" stroke="#3f464a" stroke-linecap="round" stroke-miterlimit="10"/></svg>