<?xml version="1.0" encoding="UTF-8"?><svg id="UI_Interface" xmlns="http://www.w3.org/2000/svg" viewBox="0 0 50 50"><rect x=".68" y="4.75" width="48.73" height="38.34" rx="4.01" ry="4.01" fill="#fff" stroke-width="0"/><path d="m48.84,6.73s-.04-.09-.07-.13c-.08-.12-.17-.24-.26-.35-.06-.08-.12-.15-.18-.22-.09-.09-.18-.18-.28-.27-.09-.08-.17-.15-.27-.22-.09-.07-.19-.13-.29-.2-.11-.07-.23-.13-.35-.19-.09-.05-.19-.09-.28-.13-.15-.06-.3-.1-.45-.14-.08-.02-.16-.05-.25-.07-.24-.05-.49-.08-.75-.08,0,0,0,0,0,0h-3.42s0,0,0,0H4.69c-1.5,0-2.79.82-3.48,2.04h-.28v.6c-.07.18-.13.37-.17.57l.17.17s1.93,2.16,2.75,2.75l21.29,21.29,21-21v27.91c0,2.21-1.8,4.01-4.01,4.01h3.42c2.21,0,4.01-1.8,4.01-4.01V8.76c0-.74-.22-1.43-.57-2.03Z" fill="#ffe8bb" stroke-width="0"/><path d="m48.62,6.11c-.68-.2-1.38-.42-2.1-.66-.66-.23-1.3-.46-1.91-.7H5.73c-.58.06-1.28.19-2.04.42-.97.3-1.75.68-2.35,1.03,13.02,12.79,22.58,22.15,23.12,22.62.09.08.36.31.71.31.33,0,.58-.19.72-.31,6.76-5.84,21.44-21.35,21.44-21.35.6-.64,1.09-1.14,1.3-1.35Z" fill="#ff926a" stroke-width="0"/><rect x=".68" y="4.75" width="48.73" height="38.34" rx="4.01" ry="4.01" fill="none" stroke="#3f464a" stroke-miterlimit="10"/><line x1="17.23" y1="26.98" x2="5.42" y2="38.8" fill="none" stroke="#3f464a" stroke-dasharray="0 0 5.38 4.04" stroke-linecap="round" stroke-miterlimit="10"/><line x1="32.76" y1="26.98" x2="44.57" y2="38.8" fill="none" stroke="#3f464a" stroke-dasharray="0 0 5.38 4.04" stroke-linecap="round" stroke-miterlimit="10"/><line x1="3.85" y1="8.68" x2="25" y2="29.83" fill="none" stroke="#3f464a" stroke-linecap="round" stroke-miterlimit="10"/><line x1="46.15" y1="8.68" x2="25" y2="29.83" fill="none" stroke="#3f464a" stroke-linecap="round" stroke-miterlimit="10"/></svg>