<?xml version="1.0" encoding="UTF-8"?>
<svg id="Layer_81" data-name="Layer 81" xmlns="http://www.w3.org/2000/svg" viewBox="0 0 50 50">
  <defs>
    <style>
      .cls-1, .cls-2 {
        stroke-linecap: round;
      }

      .cls-1, .cls-2, .cls-3 {
        fill: none;
        stroke: #3f464a;
        stroke-miterlimit: 10;
      }

      .cls-2 {
        stroke-dasharray: 0 0 5.38 4.04;
      }

      .cls-4 {
        fill: #2f5f88;
      }

      .cls-4, .cls-5, .cls-6, .cls-7, .cls-8, .cls-9 {
        stroke-width: 0px;
      }

      .cls-5 {
        fill: #264c76;
      }

      .cls-6 {
        fill: #edb256;
      }

      .cls-7 {
        fill: #fff;
      }

      .cls-8 {
        fill: #ffe8bb;
      }

      .cls-9 {
        fill: #ffcb6c;
      }
    </style>
  </defs>
  <g>
    <rect class="cls-4" x="16.82" y="40.31" width="16.36" height="4.18" rx="1.22" ry="1.22"/>
    <rect class="cls-3" x="16.82" y="40.31" width="16.36" height="4.18" rx="1.22" ry="1.22"/>
  </g>
  <g>
    <rect class="cls-4" x=".58" y="3.99" width="24.42" height="38.91" rx="1.34" ry="1.34"/>
    <rect class="cls-4" x="25" y="3.99" width="24.42" height="38.91" rx="1.34" ry="1.34"/>
    <path class="cls-5" d="m48.08,3.99h-3c.74,0,1.34.6,1.34,1.34v36.23c0,.74-.6,1.34-1.34,1.34h3c.74,0,1.34-.6,1.34-1.34V5.33c0-.74-.6-1.34-1.34-1.34Z"/>
    <path class="cls-1" d="m1.92,3.99h21.74c.74,0,1.34.6,1.34,1.34v36.23c0,.74-.6,1.34-1.34,1.34H1.92c-.74,0-1.34-.6-1.34-1.34V5.33"/>
    <rect class="cls-3" x="25" y="3.99" width="24.42" height="38.91" rx="1.34" ry="1.34"/>
  </g>
  <g>
    <polygon class="cls-9" points="5.44 38.9 5.44 49.45 5.45 49.45 7.61 48.04 9.77 46.62 11.93 48.04 14.08 49.45 14.09 49.45 14.09 38.9 5.44 38.9"/>
    <g>
      <polygon class="cls-6" points="7.77 46.62 5.61 48.04 5.44 48.14 5.44 49.45 5.45 49.45 7.61 48.04 8.77 47.27 7.77 46.62"/>
      <polygon class="cls-6" points="12.09 38.9 12.09 48.14 14.08 49.45 14.09 49.45 14.09 38.9 12.09 38.9"/>
    </g>
    <polyline class="cls-3" points="5.44 49.45 5.45 49.45 7.61 48.04 9.77 46.62 11.93 48.04 14.08 49.45 14.09 49.45 14.09 38.9 5.44 38.9"/>
    <line class="cls-2" x1="5.44" y1="38.9" x2="5.44" y2="49.45"/>
  </g>
  <g>
    <path class="cls-7" d="m23.72,40.31H4.46c-.71,0-1.28-.57-1.28-1.28V1.91c0-.71.57-1.28,1.28-1.28h14.85c3.15,0,5.7,2.55,5.7,5.7v32.7c0,.71-.57,1.28-1.28,1.28Z"/>
    <path class="cls-8" d="m19.37.63h-3c3.11,0,5.63,2.58,5.63,5.76v32.62c0,.71-.57,1.29-1.27,1.29h3c.7,0,1.27-.58,1.27-1.29V6.39c0-3.18-2.52-5.76-5.63-5.76Z"/>
    <path class="cls-7" d="m26.28,40.31h19.26c.71,0,1.28-.57,1.28-1.28V1.91c0-.71-.57-1.28-1.28-1.28h-14.85c-3.15,0-5.7,2.55-5.7,5.7v32.7c0,.71.57,1.28,1.28,1.28Z"/>
    <path class="cls-8" d="m45.56.63h-3c.7,0,1.27.58,1.27,1.29v37.09c0,.71-.57,1.29-1.27,1.29h3c.7,0,1.27-.58,1.27-1.29V1.93c0-.71-.57-1.29-1.27-1.29Z"/>
    <path class="cls-1" d="m4.44.64h14.92c3.11,0,5.63,2.58,5.63,5.76"/>
    <path class="cls-1" d="m25,39.02c0,.71-.57,1.29-1.27,1.29H4.44c-.7,0-1.27-.58-1.27-1.29V1.93"/>
    <line class="cls-2" x1="25" y1="6.39" x2="25" y2="39.02"/>
    <path class="cls-3" d="m25,39.02c0,.71.57,1.29,1.27,1.29h19.29c.7,0,1.27-.58,1.27-1.29V1.93c0-.71-.57-1.29-1.27-1.29h-14.92c-3.11,0-5.63,2.58-5.63,5.76"/>
  </g>
</svg>