<svg xmlns="http://www.w3.org/2000/svg" viewBox="0 0 50 50"><defs><style>.cls-1{fill:#fcefd6;}.cls-2{fill:#3f464a;}.cls-3{fill:#fff;}.cls-4{fill:#ffe8bb;}.cls-5,.cls-6,.cls-7{fill:none;stroke:#3f464a;stroke-miterlimit:10;}.cls-5,.cls-7{stroke-linecap:round;}.cls-5{stroke-dasharray:4 3;}.cls-8{fill:#7edff1;}.cls-9{fill:#fb6375;}.cls-10{fill:#ffcb6c;}.cls-11{fill:#45d5dd;}</style></defs><g id="Layer_51" data-name="Layer 51"><rect class="cls-1" y="3.55" width="33.67" height="46.45" rx="3.36"/><path class="cls-2" d="M30.58,4.55a2.09,2.09,0,0,1,2.09,2.08V46.91A2.1,2.1,0,0,1,30.58,49H3.09A2.1,2.1,0,0,1,1,46.91V6.63A2.09,2.09,0,0,1,3.09,4.55H30.58m0-1H3.09A3.08,3.08,0,0,0,0,6.63V46.91A3.09,3.09,0,0,0,3.09,50H30.58a3.09,3.09,0,0,0,3.09-3.09V6.63a3.08,3.08,0,0,0-3.09-3.08Z"/><rect class="cls-1" x="2.58" y="1.77" width="33.67" height="46.45" rx="3.36"/><path class="cls-2" d="M33.16,2.77a2.1,2.1,0,0,1,2.09,2.09V45.14a2.1,2.1,0,0,1-2.09,2.09H5.66a2.09,2.09,0,0,1-2.08-2.09V4.86A2.09,2.09,0,0,1,5.66,2.77h27.5m0-1H5.66A3.08,3.08,0,0,0,2.58,4.86V45.14a3.08,3.08,0,0,0,3.08,3.09h27.5a3.09,3.09,0,0,0,3.09-3.09V4.86a3.09,3.09,0,0,0-3.09-3.09Z"/><rect class="cls-3" x="5.34" width="33.67" height="46.45" rx="3.37"/><polygon class="cls-4" points="35.12 8.36 35.12 45.51 38.01 45.51 38.01 11.25 35.12 8.36"/><path class="cls-2" d="M26.35,1,38,12.66V43.37a2.09,2.09,0,0,1-2.09,2.08H8.42a2.08,2.08,0,0,1-2.08-2.08V3.09A2.09,2.09,0,0,1,8.42,1H26.35m.41-1H8.42A3.08,3.08,0,0,0,5.34,3.09V43.37a3.08,3.08,0,0,0,3.08,3.08h27.5A3.08,3.08,0,0,0,39,43.37V12.25L26.76,0Z"/><path class="cls-4" d="M26.76,0h0V9.23a3,3,0,0,0,3,3H39Z"/><path class="cls-4" d="M26.76,0h0V9.23a3,3,0,0,0,3,3H39Z"/><line class="cls-5" x1="38.51" y1="12.45" x2="26.56" y2="0.5"/><path class="cls-6" d="M26.76.7h0V9.4a2.86,2.86,0,0,0,2.85,2.86h8.71"/><line class="cls-7" x1="32.7" y1="38.53" x2="11.65" y2="38.53"/><line class="cls-7" x1="11.65" y1="7.93" x2="22.17" y2="7.93"/><line class="cls-7" x1="32.7" y1="30.88" x2="11.65" y2="30.88"/><line class="cls-7" x1="32.7" y1="23.23" x2="11.65" y2="23.23"/><line class="cls-7" x1="32.7" y1="15.58" x2="11.65" y2="15.58"/><rect class="cls-8" x="44.1" y="7.67" width="5.28" height="33.41"/><path class="cls-9" d="M45.16,4.45h3.18A1.05,1.05,0,0,1,49.38,5.5V7.67a0,0,0,0,1,0,0H44.1a0,0,0,0,1,0,0V5.5A1.05,1.05,0,0,1,45.16,4.45Z"/><path class="cls-7" d="M45.16,4.45h3.18A1.05,1.05,0,0,1,49.38,5.5V7.67a0,0,0,0,1,0,0H44.1a0,0,0,0,1,0,0V5.5A1.05,1.05,0,0,1,45.16,4.45Z"/><polygon class="cls-10" points="46.74 49.11 49.63 41.09 43.85 41.09 46.74 49.11"/><rect class="cls-11" x="47.28" y="7.67" width="2.1" height="33.41"/><line class="cls-5" x1="47.28" y1="7.67" x2="47.28" y2="38.43"/><polygon class="cls-7" points="44.1 7.67 44.1 41.09 44.11 41.09 46.74 48.35 49.38 41.09 49.38 41.09 49.38 7.67 44.1 7.67"/><line class="cls-7" x1="44.1" y1="41.09" x2="49.38" y2="41.09"/><path class="cls-2" d="M46.09,45.29l1.37-.22-.35,1.22-.34,1-.34-1Z"/></g></svg>