<?xml version="1.0" encoding="UTF-8"?>
<svg id="Layer_1" data-name="Layer 1" xmlns="http://www.w3.org/2000/svg" viewBox="0 0 500 500">
  <defs>
    <style>
      .cls-1, .cls-2 {
        fill: #383838;
      }

      .cls-2 {
        opacity: .5;
      }
    </style>
  </defs>
  <path class="cls-1" d="m217.63,220.28c-9.48,9.48-11.29,23.72-5.45,35.03l-44.5,44.5c-11.31-5.84-25.55-4.03-35.03,5.45-11.73,11.73-11.73,30.76,0,42.49,11.73,11.73,30.76,11.73,42.49,0,9.48-9.48,11.29-23.72,5.45-35.03l44.5-44.5c11.31,5.84,25.55,4.03,35.03-5.45,11.73-11.73,11.73-30.76,0-42.49-11.73-11.73-30.76-11.73-42.49,0Z"/>
  <circle class="cls-1" cx="238.87" cy="411.48" r="30.04"/>
  <path class="cls-1" d="m217.63,50.33c-9.48,9.48-11.29,23.72-5.45,35.03l-44.5,44.5c-11.31-5.84-25.55-4.03-35.03,5.45s-11.29,23.72-5.45,35.03l-44.5,44.5c-11.31-5.84-25.55-4.03-35.03,5.45-11.73,11.73-11.73,30.76,0,42.49,11.73,11.73,30.76,11.73,42.49,0,9.48-9.48,11.29-23.72,5.45-35.03l44.5-44.5c11.31,5.84,25.55,4.03,35.03-5.45,9.48-9.48,11.29-23.72,5.45-35.03l44.5-44.5c11.31,5.84,25.55,4.03,35.03-5.45,11.73-11.73,11.73-30.76,0-42.49-11.73-11.73-30.76-11.73-42.49,0Z"/>
  <path class="cls-2" d="m430.07,220.28c-11.73-11.73-30.76-11.73-42.49,0-9.48,9.48-11.29,23.72-5.45,35.03l-44.5,44.5c-11.31-5.84-25.55-4.03-35.03,5.45-11.73,11.73-11.73,30.76,0,42.49,11.73,11.73,30.76,11.73,42.49,0,9.48-9.48,11.29-23.72,5.45-35.03l44.5-44.5c11.31,5.84,25.55,4.03,35.03-5.45,11.73-11.73,11.73-30.76,0-42.49Z"/>
</svg>