<?xml version="1.0" encoding="UTF-8"?><svg id="Data_Reporting" xmlns="http://www.w3.org/2000/svg" viewBox="0 0 50 50"><path d="m48.08,3.99h-21.74c-.74,0-1.34.6-1.34,1.34,0-.74-.6-1.34-1.34-1.34H1.92c-.74,0-1.34.6-1.34,1.34v36.23c0,.74.6,1.34,1.34,1.34h14.9v.37c0,.67.54,1.22,1.22,1.22h13.93c.67,0,1.22-.54,1.22-1.22v-.37h14.9c.74,0,1.34-.6,1.34-1.34V5.33c0-.74-.6-1.34-1.34-1.34Z" fill="#2f5f88" stroke-width="0"/><path d="m48.08,3.99h-3c.74,0,1.34.6,1.34,1.34v36.23c0,.74-.6,1.34-1.34,1.34h3c.74,0,1.34-.6,1.34-1.34V5.33c0-.74-.6-1.34-1.34-1.34Z" fill="#264c76" stroke-width="0"/><polygon points="5.44 38.9 5.44 49.45 5.45 49.45 7.61 48.04 9.77 46.62 11.93 48.04 14.08 49.45 14.09 49.45 14.09 38.9 5.44 38.9" fill="#ffcb6c" stroke-width="0"/><polygon points="7.77 46.62 5.61 48.04 5.44 48.14 5.44 49.45 5.45 49.45 7.61 48.04 8.77 47.27 7.77 46.62" fill="#edb256" stroke-width="0"/><polygon points="12.09 38.9 12.09 48.14 14.08 49.45 14.09 49.45 14.09 38.9 12.09 38.9" fill="#edb256" stroke-width="0"/><path d="m45.54.64h-14.85c-3.15,0-5.7,2.55-5.7,5.7,0-3.15-2.55-5.7-5.7-5.7H4.46c-.71,0-1.28.57-1.28,1.28v37.12c0,.71.57,1.28,1.28,1.28h19.26c.71,0,1.28-.57,1.28-1.28,0,.71.57,1.28,1.28,1.28h19.26c.71,0,1.28-.57,1.28-1.28V1.91c0-.71-.57-1.28-1.28-1.28Z" fill="#fff" stroke-width="0"/><path d="m19.37.63h-3c3.11,0,5.63,2.58,5.63,5.76v32.62c0,.71-.57,1.29-1.27,1.29h3c.7,0,1.27-.58,1.27-1.29V6.39c0-3.18-2.52-5.76-5.63-5.76Z" fill="#ffe8bb" stroke-width="0"/><path d="m45.56.63h-3c.7,0,1.27.58,1.27,1.29v37.09c0,.71-.57,1.29-1.27,1.29h3c.7,0,1.27-.58,1.27-1.29V1.93c0-.71-.57-1.29-1.27-1.29Z" fill="#ffe8bb" stroke-width="0"/><path d="m48.08,3.49h-.75v-1.57c0-.99-.79-1.79-1.77-1.79h-14.92c-2.52,0-4.69,1.56-5.63,3.79-.94-2.23-3.11-3.79-5.63-3.79H4.44c-.28,0-.5.22-.5.5s.22.5.5.5h14.92c2.83,0,5.13,2.36,5.13,5.26v32.62c0,.44-.34.79-.77.79H4.44c-.42,0-.77-.36-.77-.79V1.93c0-.28-.22-.5-.5-.5s-.5.22-.5.5v1.57h-.75c-.28,0-.5.22-.5.5s.22.5.5.5h.75v34.52c0,.99.79,1.79,1.77,1.79h.5v1.59H1.92c-.46,0-.84-.38-.84-.84V5.33c0-.28-.22-.5-.5-.5s-.5.22-.5.5v36.23c0,1.01.83,1.84,1.84,1.84h3.02v.87c0,.28.22.5.5.5s.5-.22.5-.5v-3.47h7.64v7.72l-3.82-2.51-3.82,2.51v-.22c0-.28-.22-.5-.5-.5s-.5.22-.5.5v1.14c0,.28.22.5.5.5,0,0,0,0,0,0h0s.15,0,.15,0l4.17-2.74,4.04,2.66.13.08h.65v-6.55h1.74c.07.88.8,1.58,1.7,1.58h13.92c.9,0,1.63-.7,1.7-1.58h14.41c1.01,0,1.84-.83,1.84-1.84V5.33c0-1.01-.83-1.84-1.84-1.84ZM30.63,1.14h14.92c.42,0,.77.36.77.79v37.09c0,.44-.34.79-.77.79h-19.29c-.42,0-.76-.36-.76-.79V6.4c0-2.9,2.3-5.26,5.13-5.26ZM14.59,40.81h9.15c.28,0,.53-.07.77-.19v.94c0,.46-.38.84-.84.84h-9.07v-1.59Zm17.37,3.18h-13.92c-.35,0-.63-.25-.69-.58h6.31c.53,0,1-.23,1.34-.59.34.36.81.59,1.34.59h6.31c-.06.33-.34.58-.69.58Zm16.95-2.42c0,.46-.38.84-.84.84h-21.74c-.46,0-.84-.38-.84-.84v-.94c.23.12.49.19.76.19h19.29c.97,0,1.77-.8,1.77-1.79V4.49h.75c.46,0,.84.38.84.84v36.23Z" fill="#3f464a" stroke-width="0"/></svg>