<?xml version="1.0" encoding="UTF-8"?><svg id="UI_Interface" xmlns="http://www.w3.org/2000/svg" viewBox="0 0 50 50"><circle cx="32.83" cy="11.7" r="10.62" fill="#ffcb6c" stroke-width="0"/><path d="m32.83,1.08c-.51,0-1.01.05-1.5.12,5.15.73,9.12,5.15,9.12,10.5s-3.97,9.77-9.12,10.5c.49.07.99.12,1.5.12,5.86,0,10.62-4.75,10.62-10.62S38.69,1.08,32.83,1.08Z" fill="#edb256" stroke-width="0"/><path d="m49.12,42.33c0-9-7.3-16.29-16.29-16.29s-16.29,7.3-16.29,16.29,32.59,9,32.59,0Z" fill="#ffcb6c" stroke-width="0"/><path d="m32.83,26.04c-.51,0-1.01.03-1.5.08,8.3.76,14.79,7.73,14.79,16.22,0,4.22-7.18,6.46-14.79,6.72,8.62.29,17.79-1.95,17.79-6.72,0-9-7.3-16.29-16.29-16.29Z" fill="#edb256" stroke-width="0"/><circle cx="32.83" cy="11.7" r="10.62" fill="none" stroke="#3f464a" stroke-miterlimit="10" stroke-width="1.01"/><path d="m49.12,42.33c0-9-7.3-16.29-16.29-16.29s-16.29,7.3-16.29,16.29,32.59,9,32.59,0Z" fill="none" stroke="#3f464a" stroke-miterlimit="10" stroke-width="1.01"/><circle cx="24.83" cy="11.7" r="10.62" fill="#ffe9b5" stroke-width="0"/><path d="m24.83,1.08c-.51,0-1.01.05-1.5.12,5.15.73,9.12,5.15,9.12,10.5s-3.97,9.77-9.12,10.5c.49.07.99.12,1.5.12,5.86,0,10.62-4.75,10.62-10.62S30.69,1.08,24.83,1.08Z" fill="#ead09d" stroke-width="0"/><path d="m41.12,42.33c0-9-7.3-16.29-16.29-16.29s-16.29,7.3-16.29,16.29,32.59,9,32.59,0Z" fill="#ffe9b5" stroke-width="0"/><path d="m24.83,26.04c-.51,0-1.01.03-1.5.08,8.3.76,14.79,7.73,14.79,16.22,0,4.22-7.18,6.46-14.79,6.72,8.62.29,17.79-1.95,17.79-6.72,0-9-7.3-16.29-16.29-16.29Z" fill="#ead09d" stroke-width="0"/><circle cx="24.83" cy="11.7" r="10.62" fill="none" stroke="#3f464a" stroke-dasharray="0 0 4.79 3.59" stroke-linecap="round" stroke-miterlimit="10"/><path d="m41.12,42.33c0-9-7.3-16.29-16.29-16.29s-16.29,7.3-16.29,16.29,32.59,9,32.59,0Z" fill="none" stroke="#3f464a" stroke-dasharray="0 0 4.63 3.48" stroke-linecap="round" stroke-miterlimit="10"/><circle cx="16.83" cy="11.7" r="10.62" fill="#7edff1" stroke-width="0"/><path d="m16.83,1.08c-.51,0-1.01.05-1.5.12,5.15.73,9.12,5.15,9.12,10.5s-3.97,9.77-9.12,10.5c.49.07.99.12,1.5.12,5.86,0,10.62-4.75,10.62-10.62S22.69,1.08,16.83,1.08Z" fill="#4ed0dd" stroke-width="0"/><path d="m33.12,42.33c0-9-7.3-16.29-16.29-16.29S.53,33.33.53,42.33s32.59,9,32.59,0Z" fill="#7edff1" stroke-width="0"/><path d="m16.83,26.04c-.51,0-1.01.03-1.5.08,8.3.76,14.79,7.73,14.79,16.22,0,4.22-7.18,6.46-14.79,6.72,8.62.29,17.79-1.95,17.79-6.72,0-9-7.3-16.29-16.29-16.29Z" fill="#4ed0dd" stroke-width="0"/><circle cx="16.83" cy="11.7" r="10.62" fill="none" stroke="#3f464a" stroke-miterlimit="10" stroke-width="1.01"/><path d="m33.12,42.33c0-9-7.3-16.29-16.29-16.29S.53,33.33.53,42.33s32.59,9,32.59,0Z" fill="none" stroke="#3f464a" stroke-miterlimit="10" stroke-width="1.01"/></svg>