<svg xmlns="http://www.w3.org/2000/svg" viewBox="0 0 50 50"><defs><style>.cls-1{fill:#fff;}.cls-2{fill:#7edff1;}.cls-3{fill:#4ad4df;}.cls-11,.cls-4{fill:none;stroke:#3f464a;stroke-linecap:round;stroke-miterlimit:10;}.cls-5{fill:#87acb4;}.cls-6{fill:#4e99a9;}.cls-7{fill:#a8cccf;}.cls-8{fill:#87abb8;}.cls-9{fill:#ffcb6c;}.cls-10{fill:#edb256;}.cls-11{stroke-dasharray:4 3;}</style></defs><g id="Layer_58" data-name="Layer 58"><circle class="cls-1" cx="39.42" cy="33.67" r="5.01"/><path class="cls-2" d="M45.44,25.75a10.87,10.87,0,0,0,.22-4.31l3.47-.52a14.49,14.49,0,0,0-2.75-6.51l-2.8,2.12a10.83,10.83,0,0,0-3.21-2.84l1.76-3a14.47,14.47,0,0,0-3.65-1.48h0a17.88,17.88,0,0,0-3.1-.39l-.12,3.47A10.89,10.89,0,0,0,31,13L29.76,9.66A13.62,13.62,0,0,0,24,13.84l2.73,2.22a10.77,10.77,0,0,0-2.07,3.78l-3.3-1c-.07.22-.13.44-.19.66a14.82,14.82,0,0,0-.25,6.35l3.46-.62A10.91,10.91,0,0,0,26,29.12l-3,2a14.19,14.19,0,0,0,5.35,4.63L30,32.66a11.38,11.38,0,0,0,2.26.87,11.22,11.22,0,0,0,1.87.31l-.27,3.5a14.26,14.26,0,0,0,7-1.21l-1.43-3.2a11.05,11.05,0,0,0,3.5-2.48l2.55,2.39a14.36,14.36,0,0,0,3.41-6.19v0ZM33.7,27.91a5,5,0,1,1,6.11-3.6A5,5,0,0,1,33.7,27.91Z"/><path class="cls-3" d="M29,13a10.29,10.29,0,0,1,1.8-.52l-1-2.81a13.25,13.25,0,0,0-1.71.79Z"/><path class="cls-3" d="M30.11,21.8A5,5,0,0,1,34,18.16a5,5,0,0,0-2.26,9.75A4.94,4.94,0,0,0,34,28l-.26,0A5,5,0,0,1,30.11,21.8Z"/><path class="cls-3" d="M22.64,19.84c.06-.19.13-.37.2-.55l-1.5-.47c-.06.19-.11.38-.16.57Z"/><path class="cls-3" d="M36.45,9.16h0a14.47,14.47,0,0,1,3.65,1.48l-1.76,3a10.83,10.83,0,0,1,3.21,2.84l1.22-.92a11.13,11.13,0,0,0-2.43-1.92l1.76-3a14.47,14.47,0,0,0-3.65-1.48h0a17.88,17.88,0,0,0-3.1-.39V9C35.71,9,36.08,9.08,36.45,9.16Z"/><path class="cls-3" d="M41.86,31.38l-1-.93a11.05,11.05,0,0,1-3.5,2.48l1.43,3.2a14.18,14.18,0,0,1-4.87,1.21,14.25,14.25,0,0,0,6.87-1.21l-1.43-3.2A11,11,0,0,0,41.86,31.38Z"/><path class="cls-3" d="M45.66,21.44l3.47-.52a14.49,14.49,0,0,0-2.75-6.51l-1.33,1a14.38,14.38,0,0,1,2.08,5.5l-3.47.52a10.87,10.87,0,0,1-.22,4.31l3.4.85v0a14.55,14.55,0,0,1-2.54,5.14l1.13,1.05a14.36,14.36,0,0,0,3.41-6.19v0l-3.4-.85A10.87,10.87,0,0,0,45.66,21.44Z"/><path class="cls-3" d="M28,32.66l-1.11,2.2a17.76,17.76,0,0,0,1.54.9l1.23-2.42A12,12,0,0,1,28,32.66Z"/><path class="cls-3" d="M22.36,25.21l-1.5.27c0,.12,0,.24,0,.35l1.55-.28Z"/><path class="cls-4" d="M45.44,25.75a10.87,10.87,0,0,0,.22-4.31l3.47-.52a14.49,14.49,0,0,0-2.75-6.51l-2.8,2.12a10.83,10.83,0,0,0-3.21-2.84l1.76-3a14.47,14.47,0,0,0-3.65-1.48h0a17.88,17.88,0,0,0-3.1-.39l-.12,3.47A10.89,10.89,0,0,0,31,13L29.76,9.66A13.62,13.62,0,0,0,24,13.84l2.73,2.22a10.77,10.77,0,0,0-2.07,3.78l-3.3-1c-.07.22-.13.44-.19.66a14.82,14.82,0,0,0-.25,6.35l3.46-.62A10.91,10.91,0,0,0,26,29.12l-3,2a14.19,14.19,0,0,0,5.35,4.63L30,32.66a11.38,11.38,0,0,0,2.26.87,11.22,11.22,0,0,0,1.87.31l-.27,3.5a14.26,14.26,0,0,0,7-1.21l-1.43-3.2a11.05,11.05,0,0,0,3.5-2.48l2.55,2.39a14.36,14.36,0,0,0,3.41-6.19v0Z"/><circle class="cls-5" cx="14.66" cy="42.4" r="7"/><path class="cls-6" d="M14.66,35.41a7.49,7.49,0,0,0-1.5.16,7,7,0,0,1,0,13.67,7.49,7.49,0,0,0,1.5.16,7,7,0,1,0,0-14Z"/><circle class="cls-4" cx="14.66" cy="42.4" r="7"/><rect class="cls-7" x="7.66" y="35.19" width="13.99" height="7.21"/><rect class="cls-8" x="18.66" y="35.19" width="3" height="7.21"/><rect class="cls-4" x="7.66" y="35.19" width="13.99" height="7.21"/><path class="cls-9" d="M14.61.6A13.85,13.85,0,0,0,.76,14.46c0,.27,0,.71.05,1.25.53,7.37,5.07,10.44,6.53,16.86a20.15,20.15,0,0,1,.38,2.62h13.9A18.68,18.68,0,0,1,22,32.82c1.31-6,5-9.16,6.17-15.37A15.18,15.18,0,0,0,28.45,15c0-.22,0-.41,0-.53A13.85,13.85,0,0,0,14.61.6Z"/><path class="cls-10" d="M14.61.6c-.5,0-1,0-1.5.08A13.86,13.86,0,0,1,25.47,14.46c0,.12,0,.31,0,.53a15.18,15.18,0,0,1-.31,2.46C24,23.66,20.28,26.85,19,32.82a18.68,18.68,0,0,0-.35,2.37h3A18.68,18.68,0,0,1,22,32.82c1.31-6,5-9.16,6.17-15.37A15.18,15.18,0,0,0,28.45,15c0-.22,0-.41,0-.53A13.85,13.85,0,0,0,14.61.6Z"/><path class="cls-4" d="M.76,14.46c0,.27,0,.71.05,1.25.53,7.37,5.07,10.44,6.53,16.86a20.15,20.15,0,0,1,.38,2.62h13.9A18.68,18.68,0,0,1,22,32.82c1.31-6,5-9.16,6.17-15.37A15.18,15.18,0,0,0,28.45,15c0-.22,0-.41,0-.53A13.85,13.85,0,0,0,14.61.6"/><path class="cls-11" d="M14.61.6A13.85,13.85,0,0,0,.76,14.46"/><path class="cls-4" d="M20.38,46.43,38.54,26.51a5,5,0,1,0-7.08-7.07l-23.8,23"/><line class="cls-4" x1="14.61" y1="35.17" x2="14.61" y2="23.07"/><line class="cls-4" x1="9.65" y1="23.07" x2="19.58" y2="23.07"/><line class="cls-4" x1="9.65" y1="20.69" x2="19.58" y2="20.69"/><line class="cls-4" x1="9.65" y1="18.32" x2="19.58" y2="18.32"/><circle class="cls-4" cx="34.94" cy="23.03" r="5.03"/></g></svg>