<?xml version="1.0" encoding="UTF-8"?>
<svg id="Layer_81" data-name="Layer 81" xmlns="http://www.w3.org/2000/svg" viewBox="0 0 50 50">
  <defs>
    <style>
      .cls-1 {
        stroke-dasharray: 0 0 4.79 3.59;
      }

      .cls-1, .cls-2 {
        stroke-linecap: round;
      }

      .cls-1, .cls-2, .cls-3 {
        fill: none;
        stroke: #3f464a;
        stroke-miterlimit: 10;
      }

      .cls-2 {
        stroke-dasharray: 0 0 4.63 3.48;
      }

      .cls-3 {
        stroke-width: 1.01px;
      }

      .cls-4 {
        fill: #4ed0dd;
      }

      .cls-4, .cls-5, .cls-6, .cls-7, .cls-8, .cls-9 {
        stroke-width: 0px;
      }

      .cls-5 {
        fill: #7edff1;
      }

      .cls-6 {
        fill: #edb256;
      }

      .cls-7 {
        fill: #ead09d;
      }

      .cls-8 {
        fill: #ffe9b5;
      }

      .cls-9 {
        fill: #ffcb6c;
      }
    </style>
  </defs>
  <g>
    <circle class="cls-9" cx="32.83" cy="11.7" r="10.62"/>
    <path class="cls-6" d="m32.83,1.08c-.51,0-1.01.05-1.5.12,5.15.73,9.12,5.15,9.12,10.5s-3.97,9.77-9.12,10.5c.49.07.99.12,1.5.12,5.86,0,10.62-4.75,10.62-10.62S38.69,1.08,32.83,1.08Z"/>
    <path class="cls-9" d="m49.12,42.33c0-9-7.3-16.29-16.29-16.29s-16.29,7.3-16.29,16.29,32.59,9,32.59,0Z"/>
    <path class="cls-6" d="m32.83,26.04c-.51,0-1.01.03-1.5.08,8.3.76,14.79,7.73,14.79,16.22,0,4.22-7.18,6.46-14.79,6.72,8.62.29,17.79-1.95,17.79-6.72,0-9-7.3-16.29-16.29-16.29Z"/>
    <circle class="cls-3" cx="32.83" cy="11.7" r="10.62"/>
    <path class="cls-3" d="m49.12,42.33c0-9-7.3-16.29-16.29-16.29s-16.29,7.3-16.29,16.29,32.59,9,32.59,0Z"/>
  </g>
  <g>
    <circle class="cls-8" cx="24.83" cy="11.7" r="10.62"/>
    <path class="cls-7" d="m24.83,1.08c-.51,0-1.01.05-1.5.12,5.15.73,9.12,5.15,9.12,10.5s-3.97,9.77-9.12,10.5c.49.07.99.12,1.5.12,5.86,0,10.62-4.75,10.62-10.62S30.69,1.08,24.83,1.08Z"/>
    <path class="cls-8" d="m41.12,42.33c0-9-7.3-16.29-16.29-16.29s-16.29,7.3-16.29,16.29,32.59,9,32.59,0Z"/>
    <path class="cls-7" d="m24.83,26.04c-.51,0-1.01.03-1.5.08,8.3.76,14.79,7.73,14.79,16.22,0,4.22-7.18,6.46-14.79,6.72,8.62.29,17.79-1.95,17.79-6.72,0-9-7.3-16.29-16.29-16.29Z"/>
    <circle class="cls-1" cx="24.83" cy="11.7" r="10.62"/>
    <path class="cls-2" d="m41.12,42.33c0-9-7.3-16.29-16.29-16.29s-16.29,7.3-16.29,16.29,32.59,9,32.59,0Z"/>
  </g>
  <g>
    <circle class="cls-5" cx="16.83" cy="11.7" r="10.62"/>
    <path class="cls-4" d="m16.83,1.08c-.51,0-1.01.05-1.5.12,5.15.73,9.12,5.15,9.12,10.5s-3.97,9.77-9.12,10.5c.49.07.99.12,1.5.12,5.86,0,10.62-4.75,10.62-10.62S22.69,1.08,16.83,1.08Z"/>
    <path class="cls-5" d="m33.12,42.33c0-9-7.3-16.29-16.29-16.29S.53,33.33.53,42.33s32.59,9,32.59,0Z"/>
    <path class="cls-4" d="m16.83,26.04c-.51,0-1.01.03-1.5.08,8.3.76,14.79,7.73,14.79,16.22,0,4.22-7.18,6.46-14.79,6.72,8.62.29,17.79-1.95,17.79-6.72,0-9-7.3-16.29-16.29-16.29Z"/>
    <circle class="cls-3" cx="16.83" cy="11.7" r="10.62"/>
    <path class="cls-3" d="m33.12,42.33c0-9-7.3-16.29-16.29-16.29S.53,33.33.53,42.33s32.59,9,32.59,0Z"/>
  </g>
</svg>