<svg xmlns="http://www.w3.org/2000/svg" viewBox="0 0 50 50"><defs><style>.cls-1{fill:#ff9268;}.cls-2{fill:#fd7251;}.cls-3,.cls-7{fill:none;stroke:#3f464a;stroke-miterlimit:10;}.cls-4{fill:#7edff1;}.cls-5{fill:#4ad4df;}.cls-6{fill:#fff;}.cls-7{stroke-linecap:round;stroke-dasharray:0.1 9.78;}</style></defs><g id="Layer_3" data-name="Layer 3"><path class="cls-1" d="M24.89.6a13,13,0,0,0-13,13v1.09h6v-.61a7,7,0,1,1,14,0v5.69a7,7,0,0,1-6.9,7v10a13,13,0,0,0,12.89-13V13.6A13,13,0,0,0,24.89.6Z"/><path class="cls-1" d="M27.17,26.39a6.82,6.82,0,0,1-2.17.38v.91A7.22,7.22,0,0,0,27.17,26.39Z"/><path class="cls-2" d="M24.89.6a12.89,12.89,0,0,0-7.62,2.49A13,13,0,0,1,35.56,15V25.12a13,13,0,0,1-5.38,10.51,13,13,0,0,0,7.71-11.86V13.6A13,13,0,0,0,24.89.6Z"/><path class="cls-3" d="M24.89.6a13,13,0,0,0-13,13v1.09h6v-.61a7,7,0,1,1,14,0v5.69a7,7,0,0,1-6.9,7v10a13,13,0,0,0,12.89-13V13.6A13,13,0,0,0,24.89.6Z"/><path class="cls-3" d="M24.89.6a13,13,0,0,0-13,13v1.09h6v-.61a7,7,0,1,1,14,0v5.69a7,7,0,0,1-6.9,7v10a13,13,0,0,0,12.89-13V13.6A13,13,0,0,0,24.89.6Z"/><circle class="cls-4" cx="25" cy="33.63" r="15.72"/><path class="cls-5" d="M25,17.91a15.6,15.6,0,0,0-1.82.11,15.71,15.71,0,0,1,0,31.21A15.71,15.71,0,1,0,25,17.91Z"/><circle class="cls-3" cx="25" cy="33.63" r="15.72"/><circle class="cls-6" cx="25" cy="33.63" r="9.43"/><circle class="cls-3" cx="25" cy="33.63" r="9.43"/><path class="cls-7" d="M25.35,21.05A12.58,12.58,0,0,0,12.42,33.28c.2,16.7,24,17.36,25.16.7A12.58,12.58,0,0,0,25.35,21.05Z"/><circle class="cls-4" cx="25" cy="33.63" r="3.14"/><path class="cls-5" d="M25,30.49a3.11,3.11,0,0,0-1.06.19,3.12,3.12,0,0,1,0,5.89A3.13,3.13,0,1,0,25,30.49Z"/><circle class="cls-3" cx="25" cy="33.63" r="3.14"/></g></svg>