<?xml version="1.0" encoding="UTF-8"?>
<svg id="Layer_81" data-name="Layer 81" xmlns="http://www.w3.org/2000/svg" viewBox="0 0 50 50">
  <defs>
    <style>
      .cls-1 {
        stroke-dasharray: 0 0 4 3;
      }

      .cls-1, .cls-2 {
        fill: none;
        stroke: #3f464a;
        stroke-linecap: round;
        stroke-miterlimit: 10;
      }

      .cls-3 {
        fill: #4ed0dd;
      }

      .cls-3, .cls-4, .cls-5, .cls-6 {
        stroke-width: 0px;
      }

      .cls-4 {
        fill: #7edff1;
      }

      .cls-5 {
        fill: #fff;
      }

      .cls-6 {
        fill: #ffe8bb;
      }
    </style>
  </defs>
  <circle class="cls-4" cx="25.03" cy="25" r="24.4"/>
  <path class="cls-3" d="m25.03.6c-5.65,0-10.84,1.92-14.98,5.14,3.54-2,7.62-3.14,11.98-3.14,13.48,0,24.4,10.92,24.4,24.4,0,7.83-3.69,14.79-9.43,19.26,7.42-4.19,12.43-12.13,12.43-21.26C49.43,11.52,38.5.6,25.03.6Z"/>
  <path class="cls-2" d="m25.02.6c13.48,0,24.4,10.92,24.4,24.4s-10.92,24.4-24.4,24.4S.62,38.48.62,25"/>
  <path class="cls-1" d="m.62,25C.62,11.52,11.54.6,25.02.6"/>
  <circle class="cls-5" cx="25.02" cy="12.71" r="3.67"/>
  <path class="cls-6" d="m25.02,9.04c-.35,0-.68.06-1,.16,1.54.44,2.67,1.84,2.67,3.51s-1.13,3.08-2.67,3.51c.32.09.65.16,1,.16,2.03,0,3.67-1.64,3.67-3.67s-1.64-3.67-3.67-3.67Z"/>
  <g>
    <path class="cls-5" d="m25,19.12h0c1.8,0,3.26,1.46,3.26,3.26v16.31c0,1.8-1.46,3.26-3.26,3.26h0c-1.8,0-3.26-1.46-3.26-3.26v-16.31c0-1.8,1.46-3.26,3.26-3.26Z"/>
    <path class="cls-6" d="m25,19.12c-.35,0-.68.07-1,.17,1.31.42,2.26,1.64,2.26,3.08v16.31c0,1.45-.95,2.66-2.26,3.08.32.1.65.17,1,.17,1.8,0,3.26-1.46,3.26-3.26v-16.31c0-1.8-1.46-3.26-3.26-3.26Z"/>
    <path class="cls-2" d="m25,19.12h0c1.8,0,3.26,1.46,3.26,3.26v16.31c0,1.8-1.46,3.26-3.26,3.26h0c-1.8,0-3.26-1.46-3.26-3.26v-16.31c0-1.8,1.46-3.26,3.26-3.26Z"/>
  </g>
  <circle class="cls-2" cx="25.02" cy="12.71" r="3.67"/>
</svg>