<svg xmlns="http://www.w3.org/2000/svg" viewBox="0 0 50 50"><defs><style>.cls-1{fill:#7edff1;}.cls-2{fill:#45d5dd;}.cls-10,.cls-15,.cls-3,.cls-6{fill:none;stroke:#3f464a;stroke-miterlimit:10;}.cls-10,.cls-15,.cls-3{stroke-linecap:round;}.cls-4{fill:#ff9268;}.cls-5{fill:#f8794e;}.cls-7{fill:#c7e6ed;}.cls-8{fill:#87acb4;}.cls-9{fill:#4e99a9;}.cls-10{stroke-dasharray:3.53 2.65;}.cls-11{fill:#a8cccf;}.cls-12{fill:#87abb8;}.cls-13{fill:#3f464a;}.cls-14{fill:#2f5f88;}.cls-15{stroke-dasharray:3.67 2.76;}</style></defs><g id="Layer_13" data-name="Layer 13"><g id="Layer_20" data-name="Layer 20"><path class="cls-1" d="M34.37,20.74h0V46.79a2.68,2.68,0,1,0,5.35,0v-26H34.37Z"/><path class="cls-2" d="M39.72,48.29l-2.17.49v-28h2.17Z"/><path class="cls-3" d="M39.72,20.74H34.37V46.79a2.68,2.68,0,1,0,5.35,0"/><path class="cls-4" d="M44.08,20.74h0V46.79a2.68,2.68,0,0,0,5.36,0v-26H44.08Z"/><path class="cls-5" d="M49.44,48.41l-2.19.81v-28h2.19Z"/><path class="cls-6" d="M49.44,20.74H44.08V46.79a2.68,2.68,0,0,0,5.36,0"/><rect class="cls-7" x="18.19" y="33.37" width="17.56" height="3.67" rx="0.64"/><rect class="cls-6" x="18.19" y="33.37" width="17.56" height="3.67" rx="0.64"/><path class="cls-8" d="M18.57,37a11,11,0,0,1,0-22V10a16.05,16.05,0,0,0,0,32.1Z"/><path class="cls-9" d="M18.57,15V10h-.19v2.46a12.44,12.44,0,0,0,0,24.88V42h.19V37a11,11,0,0,1,0-22Z"/><path class="cls-3" d="M2.52,26a16.06,16.06,0,0,0,16.05,16V37a11,11,0,0,1,0-22V10"/><path class="cls-3" d="M18.57,10a16.52,16.52,0,0,0-2,.13"/><path class="cls-10" d="M14,10.62A16.09,16.09,0,0,0,2.86,22.69"/><path class="cls-3" d="M2.65,24a14.71,14.71,0,0,0-.13,2"/><path class="cls-11" d="M39.54,50H0c1.09-2.08,2.19-4.16,3.28-6.25h30.5Z"/><path class="cls-12" d="M31.28,45.65l4,4.35h4.25l-5.76-6.25H3.28c-.33.64-.67,1.27-1,1.9Z"/><path class="cls-13" d="M33.34,44.75l2.58,2.81L37.26,49H1.65l1.72-3.26.51-1H33.34m.44-1H3.28C2.19,45.84,1.09,47.92,0,50H39.54l-5.76-6.25Z"/><path class="cls-11" d="M24.5,43.75c0-.24,0-.49,0-.74A10.18,10.18,0,1,0,4.19,43c0,.25,0,.5,0,.74Z"/><path class="cls-13" d="M14.36,32.83A10.18,10.18,0,0,1,24.54,43c0,.25,0,.5,0,.74H4.23c0-.24,0-.49,0-.74A10.17,10.17,0,0,1,14.36,32.83m0-1A11.19,11.19,0,0,0,3.19,43c0,.26,0,.51,0,.76v.06l.07.92H25.43l.07-.92v-.06c0-.25,0-.5,0-.76A11.2,11.2,0,0,0,14.36,31.83Z"/><rect class="cls-8" x="18.09" y="2.76" width="2.77" height="12.89" transform="translate(-2.07 9.28) rotate(-25.5)"/><rect class="cls-6" x="18.09" y="2.76" width="2.77" height="12.89" transform="translate(-2.07 9.28) rotate(-25.5)"/><rect class="cls-11" x="18.9" y="6.65" width="6.14" height="15.58" rx="0.13" transform="translate(-4.08 10.86) rotate(-25.5)"/><rect class="cls-6" x="18.9" y="6.65" width="6.14" height="15.58" rx="0.13" transform="translate(-4.08 10.86) rotate(-25.5)"/><rect class="cls-14" x="21.35" y="21.37" width="8.97" height="2.55" rx="0.13" transform="translate(-7.23 13.33) rotate(-25.5)"/><rect class="cls-6" x="21.35" y="21.37" width="8.97" height="2.55" rx="0.13" transform="translate(-7.23 13.33) rotate(-25.5)"/><rect class="cls-14" x="13.41" y="1.65" width="6.14" height="2.55" rx="0.13" transform="matrix(0.9, -0.43, 0.43, 0.9, 0.35, 7.38)"/><rect class="cls-6" x="13.41" y="1.65" width="6.14" height="2.55" rx="0.13" transform="matrix(0.9, -0.43, 0.43, 0.9, 0.35, 7.38)"/><line class="cls-3" x1="39.72" y1="20.74" x2="39.72" y2="22.74"/><line class="cls-15" x1="39.72" y1="25.5" x2="39.72" y2="43.41"/><line class="cls-3" x1="39.72" y1="44.79" x2="39.72" y2="46.79"/><line class="cls-3" x1="49.44" y1="20.74" x2="49.44" y2="22.74"/><line class="cls-15" x1="49.44" y1="25.5" x2="49.44" y2="43.41"/><line class="cls-3" x1="49.44" y1="44.79" x2="49.44" y2="46.79"/></g></g></svg>