<svg xmlns="http://www.w3.org/2000/svg" viewBox="0 0 50 50"><defs><style>.cls-1{fill:#7edff1;}.cls-2,.cls-5,.cls-6{fill:none;stroke-miterlimit:10;}.cls-2,.cls-5{stroke:#3f464a;}.cls-3{fill:#ff9268;}.cls-4{fill:#ff754b;}.cls-5,.cls-6{stroke-linecap:round;}.cls-6{stroke:#fff;}</style></defs><g id="Layer_24" data-name="Layer 24"><path class="cls-1" d="M27.58,24.74c-1.17-1.53-4,0-5.06-1.47-.71-1,.25-2.35-.77-3.85a3.54,3.54,0,0,0-.86-.87L1.33,39.37a2.33,2.33,0,0,0,.1,3.3L8.06,48.9a2.34,2.34,0,0,0,3.3-.1L29.53,29.47a3.41,3.41,0,0,1-.77-.64C27.5,27.37,28.42,25.85,27.58,24.74Z"/><path class="cls-2" d="M13.81,5.52H27.58a0,0,0,0,1,0,0V49.77a2.34,2.34,0,0,1-2.34,2.34H16.15a2.34,2.34,0,0,1-2.34-2.34V5.52a0,0,0,0,1,0,0Z" transform="translate(25.35 -6.36) rotate(43.23)"/><rect class="cls-3" x="27.91" y="7.76" width="20.36" height="4.61" transform="translate(17.23 -23.35) rotate(43.23)"/><rect class="cls-2" x="27.91" y="7.76" width="20.36" height="4.61" transform="translate(17.23 -23.35) rotate(43.23)"/><rect class="cls-4" x="34.44" y="4.54" width="13.51" height="4.46" transform="translate(15.81 -26.38) rotate(43.23)"/><rect class="cls-2" x="34.44" y="4.54" width="13.51" height="4.46" transform="translate(15.81 -26.38) rotate(43.23)"/><path class="cls-1" d="M46,23.91l1.26,2.14c.53.9,1.06,1.79,1.58,2.69A3.32,3.32,0,0,1,45,33.63a3.31,3.31,0,0,1-2.34-3,3,3,0,0,1,.38-1.7C44,27.28,45,25.64,46,23.91Z"/><path class="cls-2" d="M46,23.91l1.26,2.14c.53.9,1.06,1.79,1.58,2.69A3.32,3.32,0,0,1,45,33.63a3.31,3.31,0,0,1-2.34-3,3,3,0,0,1,.38-1.7C44,27.28,45,25.64,46,23.91Z"/><line class="cls-5" x1="32.03" y1="11.92" x2="30.47" y2="13.57"/><line class="cls-5" x1="28.56" y1="15.6" x2="28.58" y2="15.6"/><path class="cls-5" d="M20.85,18.6a3.39,3.39,0,0,1,1,.95c1,1.46.07,2.74.75,3.74,1,1.46,3.78-.06,4.92,1.44.82,1.07-.07,2.55,1.15,4a3.39,3.39,0,0,0,.91.74"/><line class="cls-6" x1="16.08" y1="28.01" x2="19.4" y2="28"/><line class="cls-6" x1="23.47" y1="28.01" x2="23.45" y2="27.99"/><line class="cls-6" x1="13.73" y1="40.08" x2="10.41" y2="40.08"/><line class="cls-6" x1="6.34" y1="40.08" x2="6.37" y2="40.1"/><line class="cls-6" x1="10.41" y1="34.04" x2="13.84" y2="34.04"/><line class="cls-6" x1="17.02" y1="34.04" x2="20.57" y2="34.04"/></g></svg>