<svg xmlns="http://www.w3.org/2000/svg" viewBox="0 0 50 50"><defs><style>.cls-1{fill:#ff926a;}.cls-2{fill:#fd7251;}.cls-3{fill:none;stroke:#3f464a;stroke-linecap:round;stroke-miterlimit:10;}.cls-4{fill:#fff;}.cls-5{fill:#ffe8bb;}.cls-6{fill:#3f464a;}.cls-7{fill:#1a1a1a;}.cls-8{fill:#c5e7eb;}.cls-9{fill:#a9cbcc;}</style></defs><g id="Layer_13" data-name="Layer 13"><g id="Layer_10" data-name="Layer 10"><rect class="cls-1" x="5.49" y="0.52" width="39.02" height="48.97" rx="2.19"/><rect class="cls-2" x="40.35" y="1" width="3.9" height="48.19"/><path class="cls-3" d="M7.69.52H42.42a2.14,2.14,0,0,1,2.15,2.14V47.34a2.14,2.14,0,0,1-2.15,2.14H7.69a2.14,2.14,0,0,1-2.14-2.14V2.66"/><rect class="cls-4" x="8.91" y="3.76" width="32.17" height="41.81" rx="1.21"/><rect class="cls-5" x="37.28" y="4.41" width="3.29" height="40.65"/><path class="cls-6" d="M40.13,4.76a.21.21,0,0,1,.21.2v39.4a.21.21,0,0,1-.21.21H9.87a.2.2,0,0,1-.2-.21V5a.2.2,0,0,1,.2-.2H40.13m0-1H9.87A1.2,1.2,0,0,0,8.67,5v39.4a1.21,1.21,0,0,0,1.2,1.21H40.13a1.21,1.21,0,0,0,1.21-1.21V5a1.21,1.21,0,0,0-1.21-1.2Z"/><rect class="cls-4" x="12.57" y="3.76" width="24.72" height="4.86"/><path class="cls-7" d="M34.62,1.52V3.78H15.39V1.52H34.62m1-1H14.39V4.78H35.62V.52Z"/><path class="cls-4" d="M16.48,8.12a1.59,1.59,0,0,1-1.59-1.59V4.26H35.12V6.53a1.59,1.59,0,0,1-1.59,1.59Z"/><path class="cls-6" d="M34.62,4.76V6.53a1.09,1.09,0,0,1-1.09,1.09h-17a1.09,1.09,0,0,1-1.09-1.09V4.76H34.62m1-1H14.39V6.53a2.09,2.09,0,0,0,2.09,2.09H33.53a2.1,2.1,0,0,0,2.09-2.09V3.76Z"/><rect class="cls-8" x="14.89" y="0.53" width="20.23" height="3.76"/><path class="cls-6" d="M34.62,1V3.78H15.39V1H34.62m1-1H14.39V4.78H35.62V0Z"/><rect class="cls-9" x="32.14" y="1" width="2.5" height="2.79"/><path class="cls-6" d="M16.61,13.12v3h-3v-3h3m1-1h-5v5h5v-5Z"/><path class="cls-6" d="M16.61,24v3h-3V24h3m1-1h-5v5h5V23Z"/><path class="cls-6" d="M16.61,34.9V38h-3V34.9h3m1-1h-5V39h5V33.9Z"/><line class="cls-3" x1="21.62" y1="13.42" x2="37.28" y2="13.42"/><line class="cls-3" x1="21.62" y1="24.3" x2="37.28" y2="24.3"/><line class="cls-3" x1="21.62" y1="35.21" x2="37.28" y2="35.21"/><line class="cls-3" x1="21.62" y1="15.85" x2="29.45" y2="15.85"/><line class="cls-3" x1="21.62" y1="26.73" x2="29.45" y2="26.73"/><line class="cls-3" x1="21.62" y1="37.64" x2="29.45" y2="37.64"/><line class="cls-3" x1="6.07" y1="1.2" x2="6.07" y2="1.2"/></g></g></svg>