<svg xmlns="http://www.w3.org/2000/svg" viewBox="0 0 50 50"><defs><style>.cls-1{fill:#b4fcc2;}.cls-2{fill:#86ea96;}.cls-11,.cls-3,.cls-4,.cls-5,.cls-6,.cls-7{fill:none;stroke:#3f464a;stroke-miterlimit:10;}.cls-3,.cls-4,.cls-5,.cls-6,.cls-7{stroke-linecap:round;}.cls-3{stroke-dasharray:3.95 2.96;}.cls-5{stroke-dasharray:3.96 2.97;}.cls-6{stroke-dasharray:4.15 3.11;}.cls-7{stroke-dasharray:3.96 2.97;}.cls-8{fill:#7edff1;}.cls-9{fill:#4ed0dd;}.cls-10{fill:#fff;}.cls-12{fill:#ff9268;}.cls-13{fill:#f8794e;}</style></defs><g id="Layer_53" data-name="Layer 53"><circle class="cls-1" cx="25" cy="25" r="20.81"/><path class="cls-2" d="M25,4.19a18.86,18.86,0,0,0-2,.1,20.81,20.81,0,0,1,0,41.42,18.86,18.86,0,0,0,2,.1A20.81,20.81,0,0,0,25,4.19Z"/><path class="cls-3" d="M36.54,25c0,11.5-5.17,20.81-11.54,20.81C9.73,44.87,9.74,5.12,25,4.19c6.37,0,11.54,9.31,11.54,20.81Z"/><line class="cls-4" x1="25" y1="4.19" x2="25" y2="6.19"/><line class="cls-5" x1="25" y1="9.16" x2="25" y2="42.33"/><line class="cls-4" x1="25" y1="43.81" x2="25" y2="45.81"/><line class="cls-4" x1="42.98" y1="35.41" x2="40.98" y2="35.41"/><line class="cls-6" x1="37.87" y1="35.41" x2="10.39" y2="35.41"/><line class="cls-4" x1="8.84" y1="35.41" x2="6.84" y2="35.41"/><line class="cls-4" x1="45.81" y1="25" x2="43.81" y2="25"/><line class="cls-7" x1="40.84" y1="25" x2="7.67" y2="25"/><line class="cls-4" x1="6.19" y1="25" x2="4.19" y2="25"/><line class="cls-4" x1="42.98" y1="14.59" x2="40.98" y2="14.59"/><line class="cls-6" x1="37.87" y1="14.59" x2="10.39" y2="14.59"/><line class="cls-4" x1="8.84" y1="14.59" x2="6.84" y2="14.59"/><path class="cls-4" d="M7,14.59A20.83,20.83,0,1,0,14.59,7"/><line class="cls-4" x1="10.15" y1="10.47" x2="10.15" y2="10.47"/><path class="cls-8" d="M20,31.75H1.55a.94.94,0,0,0-.94.94V42.4a.94.94,0,0,0,.94.93h9.93l1.61,2.8,1.62,2.8,1.61-2.8,1.62-2.8h2a.94.94,0,0,0,.94-.93V32.69A.94.94,0,0,0,20,31.75Z"/><polygon class="cls-9" points="14.32 46.13 13.71 47.2 14.71 48.93 16.32 46.13 17.94 43.33 15.94 43.33 14.32 46.13"/><path class="cls-9" d="M20,31.75H18a.94.94,0,0,1,.94.94V42.4a.94.94,0,0,1-.94.93h2a.94.94,0,0,0,.94-.93V32.69A.94.94,0,0,0,20,31.75Z"/><circle class="cls-10" cx="5.11" cy="37.54" r="1.39"/><circle class="cls-10" cx="10.76" cy="37.54" r="1.39"/><circle class="cls-10" cx="16.55" cy="37.54" r="1.39"/><path class="cls-11" d="M20,31.75H1.55a.94.94,0,0,0-.94.94V42.4a.94.94,0,0,0,.94.93h9.93l1.61,2.8,1.62,2.8,1.61-2.8,1.62-2.8h2a.94.94,0,0,0,.94-.93V32.69A.94.94,0,0,0,20,31.75Z"/><circle class="cls-11" cx="5.11" cy="37.54" r="1.39"/><circle class="cls-11" cx="10.76" cy="37.54" r="1.39"/><circle class="cls-11" cx="16.55" cy="37.54" r="1.39"/><path class="cls-12" d="M48.24.71H29.84a.94.94,0,0,0-.94.93v9.71a.94.94,0,0,0,.94.94h2l1.62,2.8,1.61,2.79,1.62-2.79,1.61-2.8h9.93a.94.94,0,0,0,.94-.94V1.64A.94.94,0,0,0,48.24.71Z"/><polygon class="cls-13" points="34.7 15.09 34.08 16.15 35.08 17.88 36.7 15.09 38.31 12.29 36.31 12.29 34.7 15.09"/><path class="cls-13" d="M48.24.71h-2a.94.94,0,0,1,.94.93v9.71a.94.94,0,0,1-.94.94h2a.94.94,0,0,0,.94-.94V1.64A.94.94,0,0,0,48.24.71Z"/><circle class="cls-10" cx="44.68" cy="6.5" r="1.39"/><circle class="cls-10" cx="39.03" cy="6.5" r="1.39"/><circle class="cls-10" cx="33.24" cy="6.5" r="1.39"/><path class="cls-11" d="M48.24.71H29.84a.94.94,0,0,0-.94.93v9.71a.94.94,0,0,0,.94.94h2l1.62,2.8,1.61,2.79,1.62-2.79,1.61-2.8h9.93a.94.94,0,0,0,.94-.94V1.64A.94.94,0,0,0,48.24.71Z"/><circle class="cls-11" cx="44.68" cy="6.5" r="1.39"/><circle class="cls-11" cx="39.03" cy="6.5" r="1.39"/><circle class="cls-11" cx="33.24" cy="6.5" r="1.39"/></g></svg>