<?xml version="1.0" encoding="UTF-8"?><svg id="Data_Reporting" xmlns="http://www.w3.org/2000/svg" viewBox="0 0 50 50"><rect y="3.55" width="33.67" height="46.45" rx="3.36" ry="3.36" fill="#fcefd6" stroke-width="0"/><path d="m30.58,4.55c1.15,0,2.09.94,2.09,2.09v40.28c0,1.15-.94,2.09-2.09,2.09H3.09c-1.15,0-2.09-.94-2.09-2.09V6.63c0-1.15.94-2.09,2.09-2.09h27.5m0-1H3.09C1.38,3.55,0,4.93,0,6.63v40.28C0,48.62,1.38,50,3.09,50h27.5c1.7,0,3.09-1.38,3.09-3.09V6.63c0-1.7-1.38-3.09-3.09-3.09h0Z" fill="#3f464a" stroke-width="0"/><rect x="2.58" y="1.77" width="33.67" height="46.45" rx="3.36" ry="3.36" fill="#fcefd6" stroke-width="0"/><path d="m33.16,2.77c1.15,0,2.09.94,2.09,2.09v40.28c0,1.15-.94,2.09-2.09,2.09H5.66c-1.15,0-2.09-.94-2.09-2.09V4.86c0-1.15.94-2.09,2.09-2.09h27.5m0-1H5.66c-1.7,0-3.09,1.38-3.09,3.09v40.28c0,1.7,1.38,3.09,3.09,3.09h27.5c1.7,0,3.09-1.38,3.09-3.09V4.86c0-1.7-1.38-3.09-3.09-3.09h0Z" fill="#3f464a" stroke-width="0"/><rect x="5.34" width="33.67" height="46.45" rx="3.37" ry="3.37" fill="#fff" stroke-width="0"/><polygon points="35.12 8.36 35.12 45.51 38.01 45.51 38.01 11.25 35.12 8.36" fill="#ffe8bb" stroke-width="0"/><path d="m26.35,1l11.66,11.66v30.71c0,1.15-.94,2.09-2.09,2.09H8.42c-1.15,0-2.09-.94-2.09-2.09V3.09c0-1.15.94-2.09,2.09-2.09h17.92M26.76,0H8.42C6.72,0,5.34,1.38,5.34,3.09v40.28c0,1.7,1.38,3.09,3.09,3.09h27.5c1.7,0,3.09-1.38,3.09-3.09V12.25L26.76,0h0Z" fill="#3f464a" stroke-width="0"/><path d="m26.76,0h-.01v9.23c0,1.67,1.36,3.03,3.03,3.03h9.23S26.76,0,26.76,0Z" fill="#ffe8bb" stroke-width="0"/><path d="m26.76,0h-.01v9.23c0,1.67,1.36,3.03,3.03,3.03h9.23S26.76,0,26.76,0Z" fill="#ffe8bb" stroke-width="0"/><line x1="38.51" y1="12.45" x2="26.56" y2=".5" fill="none" stroke="#3f464a" stroke-dasharray="0 0 4 3" stroke-linecap="round" stroke-miterlimit="10"/><path d="m26.76.7h-.01v8.71c0,1.58,1.28,2.85,2.85,2.85h8.71" fill="none" stroke="#3f464a" stroke-miterlimit="10"/><line x1="32.7" y1="38.53" x2="11.65" y2="38.53" fill="none" stroke="#3f464a" stroke-linecap="round" stroke-miterlimit="10"/><line x1="11.65" y1="7.93" x2="22.17" y2="7.93" fill="none" stroke="#3f464a" stroke-linecap="round" stroke-miterlimit="10"/><line x1="32.7" y1="30.88" x2="11.65" y2="30.88" fill="none" stroke="#3f464a" stroke-linecap="round" stroke-miterlimit="10"/><line x1="32.7" y1="23.23" x2="11.65" y2="23.23" fill="none" stroke="#3f464a" stroke-linecap="round" stroke-miterlimit="10"/><line x1="32.7" y1="15.58" x2="11.65" y2="15.58" fill="none" stroke="#3f464a" stroke-linecap="round" stroke-miterlimit="10"/><rect x="44.1" y="7.67" width="5.28" height="33.41" fill="#7edff1" stroke-width="0"/><path d="m45.16,4.45h3.18c.58,0,1.05.47,1.05,1.05v2.17h-5.28v-2.17c0-.58.47-1.05,1.05-1.05Z" fill="#fb6375" stroke-width="0"/><path d="m45.16,4.45h3.18c.58,0,1.05.47,1.05,1.05v2.17h-5.28v-2.17c0-.58.47-1.05,1.05-1.05Z" fill="none" stroke="#3f464a" stroke-linecap="round" stroke-miterlimit="10"/><polygon points="46.74 49.11 49.63 41.09 43.85 41.09 46.74 49.11" fill="#ffcb6c" stroke-width="0"/><rect x="47.28" y="7.67" width="2.1" height="33.41" fill="#45d5dd" stroke-width="0"/><line x1="47.28" y1="7.67" x2="47.28" y2="38.43" fill="none" stroke="#3f464a" stroke-dasharray="0 0 4 3" stroke-linecap="round" stroke-miterlimit="10"/><polygon points="44.1 7.67 44.1 41.09 44.11 41.09 46.74 48.35 49.38 41.09 49.38 41.09 49.38 7.67 44.1 7.67" fill="none" stroke="#3f464a" stroke-linecap="round" stroke-miterlimit="10"/><line x1="44.1" y1="41.09" x2="49.38" y2="41.09" fill="none" stroke="#3f464a" stroke-linecap="round" stroke-miterlimit="10"/><path d="m46.09,45.29c.46-.07.91-.14,1.37-.22-.12.4-.23.81-.35,1.21l-.34,1-.34-1c-.11-.33-.23-.67-.34-1Z" fill="#3f464a" stroke-width="0"/></svg>