<?xml version="1.0" encoding="UTF-8"?><svg id="UI_Interface" xmlns="http://www.w3.org/2000/svg" viewBox="0 0 50 50"><path d="m35.88,13.89H2.7c-.93,0-1.69.83-1.69,1.85v19.18c0,1.02.76,1.85,1.69,1.85h3.63l2.91,5.53,2.91,5.53,2.91-5.53,2.91-5.53h17.9c.93,0,1.69-.83,1.69-1.85V15.74c0-1.02-.76-1.85-1.69-1.85Z" fill="#ff9268" stroke-width="0"/><polygon points="11.46 42.29 10.35 44.4 12.15 47.82 15.06 42.29 17.97 36.77 14.37 36.77 11.46 42.29" fill="#f8794e" stroke-width="0"/><path d="m35.88,13.89h-3.61c.93,0,1.69.83,1.69,1.85v19.18c0,1.02-.76,1.85-1.69,1.85h3.61c.93,0,1.69-.83,1.69-1.85V15.74c0-1.02-.76-1.85-1.69-1.85Z" fill="#f8794e" stroke-width="0"/><path d="m35.88,13.89H2.7c-.93,0-1.69.83-1.69,1.85v19.18c0,1.02.76,1.85,1.69,1.85h3.63l2.91,5.53,2.91,5.53,2.91-5.53,2.91-5.53h17.9c.93,0,1.69-.83,1.69-1.85V15.74c0-1.02-.76-1.85-1.69-1.85Z" fill="none" stroke="#3f464a" stroke-linecap="round" stroke-linejoin="round"/><path d="m47.07,3.4H8.94c-1.07,0-1.94.95-1.94,2.13v22.04c0,1.17.87,2.13,1.94,2.13h20.57l3.35,6.35,3.35,6.35,3.35-6.35,3.35-6.35h4.18c1.07,0,1.94-.95,1.94-2.13V5.52c0-1.17-.87-2.13-1.94-2.13Z" fill="#7edff1" stroke-width="0"/><polygon points="35.4 36.03 34.13 38.45 36.2 42.38 39.55 36.03 42.89 29.68 38.75 29.68 35.4 36.03" fill="#4ed0dd" stroke-width="0"/><path d="m47.07,3.4h-4.14c1.07,0,1.94.95,1.94,2.13v22.04c0,1.17-.87,2.13-1.94,2.13h4.14c1.07,0,1.94-.95,1.94-2.13V5.52c0-1.17-.87-2.13-1.94-2.13Z" fill="#4ed0dd" stroke-width="0"/><path d="m7,27.56c0,1.17.87,2.13,1.94,2.13h20.57l3.35,6.35,3.35,6.35,3.35-6.35,3.35-6.35h4.18c1.07,0,1.94-.95,1.94-2.13V5.52c0-1.17-.87-2.13-1.94-2.13H8.94c-1.07,0-1.94.95-1.94,2.13" fill="none" stroke="#3f464a" stroke-linecap="round" stroke-linejoin="round"/><line x1="7" y1="5.52" x2="7" y2="27.56" fill="none" stroke="#3f464a" stroke-dasharray="0 0 4.79 3.59" stroke-linecap="round" stroke-miterlimit="10"/></svg>