<svg xmlns="http://www.w3.org/2000/svg" viewBox="0 0 50 50"><defs><style>.cls-1,.cls-6{fill:none;stroke:#3f464a;stroke-linecap:round;stroke-miterlimit:10;}.cls-2{fill:#ff9268;}.cls-3{fill:#7edff1;}.cls-4{fill:#45d5dd;}.cls-5{fill:#f8794e;}.cls-6{stroke-dasharray:0 5.11;}</style></defs><g id="Layer_26" data-name="Layer 26"><line class="cls-1" x1="3.49" y1="46.51" x2="3.49" y2="0.51"/><rect class="cls-2" x="9.24" y="23.87" width="7.31" height="22.64"/><rect class="cls-3" x="9.24" y="10.94" width="7.31" height="12.93"/><rect class="cls-4" x="12.89" y="10.97" width="3.65" height="12.9"/><rect class="cls-5" x="12.89" y="23.87" width="3.65" height="22.64"/><rect class="cls-1" x="9.24" y="10.82" width="7.31" height="13.05" rx="0.5"/><line class="cls-1" x1="16.55" y1="22.21" x2="16.55" y2="46.51"/><line class="cls-1" x1="9.24" y1="23.07" x2="9.24" y2="41.81"/><rect class="cls-2" x="23.03" y="36.16" width="7.31" height="10.34"/><rect class="cls-5" x="26.69" y="36.16" width="3.46" height="10.34"/><line class="cls-1" x1="30.34" y1="34.76" x2="30.34" y2="46.51"/><rect class="cls-3" x="23.03" y="21.28" width="7.31" height="14.88"/><rect class="cls-4" x="26.69" y="21.28" width="3.65" height="14.88"/><rect class="cls-1" x="23.03" y="21.28" width="7.31" height="14.88" rx="0.5"/><line class="cls-1" x1="23.03" y1="34.76" x2="23.03" y2="41.81"/><rect class="cls-2" x="36.83" y="30.99" width="7.31" height="15.52"/><rect class="cls-3" x="36.83" y="10.94" width="7.31" height="20.05" rx="0.5"/><rect class="cls-5" x="40.49" y="31.29" width="3.46" height="15.22"/><rect class="cls-4" x="40.49" y="10.97" width="3.65" height="20.32"/><rect class="cls-1" x="36.83" y="10.82" width="7.31" height="20.17" rx="0.5"/><line class="cls-1" x1="44.14" y1="29.41" x2="44.14" y2="46.51"/><line class="cls-1" x1="36.83" y1="29.01" x2="36.83" y2="41.81"/><line class="cls-1" x1="49.49" y1="46.51" x2="3.49" y2="46.51"/><line class="cls-1" x1="0.53" y1="46.51" x2="0.53" y2="46.51"/><line class="cls-6" x1="0.53" y1="41.4" x2="0.53" y2="3.07"/><line class="cls-1" x1="0.53" y1="0.51" x2="0.53" y2="0.51"/><line class="cls-1" x1="3.49" y1="49.49" x2="3.49" y2="49.49"/><line class="cls-6" x1="8.61" y1="49.49" x2="46.94" y2="49.49"/><line class="cls-1" x1="49.49" y1="49.49" x2="49.49" y2="49.49"/></g></svg>