<svg xmlns="http://www.w3.org/2000/svg" xmlns:xlink="http://www.w3.org/1999/xlink" viewBox="0 0 50 50"><defs><style>.cls-1,.cls-6,.cls-7{fill:none;}.cls-2{clip-path:url(#clip-path);}.cls-3{fill:#7edff1;}.cls-4{fill:#fcefd6;}.cls-5{fill:#45d5dd;}.cls-6,.cls-7{stroke:#3f464a;stroke-miterlimit:10;}.cls-7{stroke-linecap:round;stroke-dasharray:4 3;}.cls-8{fill:#ffe9b5;}.cls-9{fill:#fff;}.cls-10{fill:#4f5659;}.cls-11{fill:#3f464a;}</style><clipPath id="clip-path"><rect class="cls-1" y="-0.04" width="50" height="50"/></clipPath></defs><g id="Layer_65" data-name="Layer 65"><g class="cls-2"><circle class="cls-3" cx="25.08" cy="46.25" r="19.51"/><rect class="cls-4" x="21.65" y="27.07" width="6.7" height="3.59"/><path class="cls-5" d="M25.08,26.74c-.5,0-1,0-1.5.07a19.5,19.5,0,0,1,0,38.88c.5,0,1,.07,1.5.07a19.51,19.51,0,1,0,0-39Z"/><path class="cls-6" d="M5.57,46.25A19.52,19.52,0,1,0,25.08,26.74"/><path class="cls-7" d="M25.08,26.74A19.51,19.51,0,0,0,5.57,46.25"/><circle class="cls-4" cx="25.08" cy="12.1" r="11.52"/><path class="cls-8" d="M25.08.58A10.42,10.42,0,0,0,23.5.71a11.5,11.5,0,0,1,0,22.79,11.88,11.88,0,0,0,1.58.12,11.52,11.52,0,1,0,0-23Z"/><circle class="cls-6" cx="25" cy="12.1" r="11.52"/><rect class="cls-9" x="27.03" y="9.2" width="6.15" height="3.38" rx="0.3"/><rect class="cls-9" x="16.99" y="9.2" width="6.15" height="3.38" rx="0.3"/><rect class="cls-6" x="27.03" y="9.2" width="6.15" height="3.38" rx="0.3"/><rect class="cls-6" x="16.99" y="9.2" width="6.15" height="3.38" rx="0.3"/><path class="cls-6" d="M23.14,10.61a10.39,10.39,0,0,1,2-.18,10,10,0,0,1,1.88.18"/><path class="cls-10" d="M27.42,49.5H22.73q.39-8.45.77-16.89l2.93.11Z"/><path class="cls-11" d="M26.43,32.72l-2.93-.11v.06l1.49,0L26,49.5h1.44Z"/><path class="cls-11" d="M24.43,32.33l-1,1c0,.59-.05,1.18-.08,1.77l1.68,1.59,1.54-1.62-.1-1.81-1-.92Z"/><path class="cls-6" d="M23.5,32.61l2.93.11,1,16.78H22.73"/><path class="cls-7" d="M22.73,49.5q.39-8.45.77-16.89"/><rect class="cls-11" x="20.38" y="29.48" width="4.7" height="1.92" transform="translate(23.58 -7.54) rotate(38.02)"/><rect class="cls-6" x="20.38" y="29.48" width="4.7" height="1.92" transform="translate(23.58 -7.54) rotate(38.02)"/><rect class="cls-11" x="25.54" y="29.12" width="4.7" height="1.92" transform="translate(68.39 36.6) rotate(141.98)"/><rect class="cls-6" x="25.54" y="29.12" width="4.7" height="1.92" transform="translate(68.39 36.6) rotate(141.98)"/><rect class="cls-10" x="23.25" y="30.85" width="3.48" height="3.48" transform="translate(29.25 -8.26) rotate(43.44)"/><rect class="cls-6" x="23.25" y="30.85" width="3.48" height="3.48" rx="0.23" transform="translate(29.25 -8.26) rotate(43.44)"/><polygon class="cls-3" points="21.33 31.46 13.64 28.05 15.21 24.13 22.9 27.54 21.33 31.46"/><path class="cls-6" d="M21.33,31.46l-7.69-3.41,1.4-3.5a.43.43,0,0,1,.57-.24l7.29,3.23Z"/><polygon class="cls-3" points="28.71 31.48 36.37 28.02 34.76 24.11 27.1 27.57 28.71 31.48"/><polygon class="cls-5" points="34.76 24.11 32.96 24.92 34.39 28.4 28.53 31.05 28.71 31.48 36.37 28.02 34.76 24.11"/><path class="cls-6" d="M28.71,31.48,36.37,28l-1.44-3.5a.43.43,0,0,0-.58-.24L27.1,27.57Z"/></g></g></svg>