<svg xmlns="http://www.w3.org/2000/svg" viewBox="0 0 50 50"><defs><style>.cls-1{fill:#ffe9b5;}.cls-2{fill:none;stroke:#3f464a;stroke-linecap:round;stroke-miterlimit:10;}.cls-3{fill:#ffcb6c;}.cls-4{fill:#edb254;}.cls-5{fill:#ff9268;}.cls-6{fill:#f8794e;}.cls-7{fill:#3f464a;}.cls-8{fill:#7edff1;}.cls-9{fill:#4ed0dd;}</style></defs><g id="Layer_13" data-name="Layer 13"><g id="Layer_30" data-name="Layer 30"><path class="cls-1" d="M43.3,13.11a1.68,1.68,0,0,1-3.35.21,1.49,1.49,0,0,0,0-.21h0a1.68,1.68,0,0,0-1.68-1.68H11.75a1.68,1.68,0,0,0-1.68,1.68v0a1.69,1.69,0,0,1-3.37,0,1.62,1.62,0,0,0-1.65-1.24,1.6,1.6,0,0,0-1.43,1.24,5,5,0,0,0,4.77,4.77,4.77,4.77,0,0,0,4.45-3.09H37.16a4.76,4.76,0,0,0,9.22-1.68,1.59,1.59,0,0,0-3.08,0Z"/><path class="cls-2" d="M46.38,13.11a1.55,1.55,0,1,0-3.09,0v0a1.68,1.68,0,0,1-3.34.18,1.49,1.49,0,0,0,0-.21h0a1.68,1.68,0,0,0-1.68-1.68H11.75a1.68,1.68,0,0,0-1.68,1.68v0a1.68,1.68,0,0,1-3.36,0v0a1.55,1.55,0,1,0-3.06.31,4.75,4.75,0,0,0,9.19,1.37H37.16a4.76,4.76,0,0,0,9.22-1.68Z"/><rect class="cls-1" x="3.81" y="20.17" width="42.37" height="3.36" rx="1.68" transform="translate(46.85 -3.15) rotate(90)"/><rect class="cls-2" x="3.81" y="20.17" width="42.37" height="3.36" rx="1.68" transform="translate(46.85 -3.15) rotate(90)"/><circle class="cls-3" cx="25" cy="13.11" r="3.69"/><path class="cls-4" d="M25,9.42a3.69,3.69,0,0,0-3.63,3.09,3,3,0,1,1,0,1.2A3.69,3.69,0,1,0,25,9.42Z"/><path class="cls-2" d="M21.31,13.11A3.69,3.69,0,1,0,25,9.42"/><line class="cls-2" x1="22.4" y1="10.5" x2="22.4" y2="10.5"/><path class="cls-5" d="M8.54,36.22a8.54,8.54,0,0,0,8.55-8.54H0A8.54,8.54,0,0,0,8.54,36.22Z"/><path class="cls-6" d="M14.12,27.68a7.57,7.57,0,0,1-10.5,7,8.55,8.55,0,0,0,13.47-7Z"/><path class="cls-7" d="M16,28.68a7.54,7.54,0,0,1-14.95,0H16m1.07-1Zm0,0H0a8.55,8.55,0,0,0,17.09,0Z"/><line class="cls-2" x1="8.39" y1="17.88" x2="0.51" y2="27.68"/><line class="cls-2" x1="8.69" y1="17.88" x2="16.57" y2="27.68"/><path class="cls-8" d="M41.46,36.22A8.54,8.54,0,0,0,50,27.68H32.91A8.54,8.54,0,0,0,41.46,36.22Z"/><path class="cls-9" d="M47,27.68a7.57,7.57,0,0,1-10.5,7,8.55,8.55,0,0,0,13.47-7Z"/><path class="cls-7" d="M48.93,28.68a7.54,7.54,0,0,1-15,0h15m1.07-1h0Zm0,0H32.91a8.55,8.55,0,0,0,17.09,0Z"/><line class="cls-2" x1="41.3" y1="17.88" x2="33.42" y2="27.68"/><line class="cls-2" x1="41.61" y1="17.88" x2="49.49" y2="27.68"/><rect class="cls-3" x="9.63" y="44.93" width="30.75" height="4.53" rx="2.26"/><path class="cls-4" d="M38.11,45.36H11.89a2.26,2.26,0,0,0-2.08,1.38,2.17,2.17,0,0,1,.81-.16H36.84a2.27,2.27,0,0,1,2.26,2.27h0a2.16,2.16,0,0,1-.18.88,2.24,2.24,0,0,0,1.45-2.1A2.27,2.27,0,0,0,38.11,45.36Z"/><rect class="cls-3" x="13.38" y="41.51" width="23.23" height="3.42" rx="1.71"/><path class="cls-4" d="M34.51,41.83H15.3a1.66,1.66,0,0,0-1.52,1,1.63,1.63,0,0,1,.59-.12H33.58a1.66,1.66,0,0,1,1.65,1.66h0a1.57,1.57,0,0,1-.13.65,1.66,1.66,0,0,0-.59-3.2Z"/><rect class="cls-2" x="13.38" y="41.51" width="23.23" height="3.42" rx="1.71"/><path class="cls-2" d="M19.27,49.46H38.11a2.27,2.27,0,0,0,0-4.53H11.89a2.27,2.27,0,0,0,0,4.53h2.94"/><line class="cls-2" x1="17.06" y1="49.46" x2="17.06" y2="49.46"/></g></g></svg>