<svg xmlns="http://www.w3.org/2000/svg" viewBox="0 0 50 50"><defs><style>.cls-1{fill:#fff;}.cls-2{fill:#ffe8bb;}.cls-3{fill:#3f464a;}.cls-4,.cls-5,.cls-6,.cls-7,.cls-8{fill:none;stroke:#3f464a;stroke-miterlimit:10;}.cls-4,.cls-6,.cls-7,.cls-8{stroke-linecap:round;}.cls-4{stroke-dasharray:4 3;}.cls-7{stroke-dasharray:1.99 1.99;}.cls-8{stroke-dasharray:2 2;}.cls-9{fill:#fb6375;}.cls-10{fill:#f72b60;}.cls-11{fill:#b4fcc2;}.cls-12{fill:#86ea96;}.cls-13{fill:#7edff1;}.cls-14{fill:#ff9268;}.cls-15{fill:#f8794e;}</style></defs><g id="Layer_60" data-name="Layer 60"><rect class="cls-1" x="0.08" width="36.24" height="50" rx="3.37"/><polygon class="cls-2" points="32.13 8.99 32.13 48.98 35.24 48.98 35.24 12.11 32.13 8.99"/><path class="cls-3" d="M22.72,1l12.6,12.6V46.68A2.33,2.33,0,0,1,33,49H3.4a2.32,2.32,0,0,1-2.32-2.32V3.32A2.32,2.32,0,0,1,3.4,1H22.72m.41-1H3.4A3.32,3.32,0,0,0,.08,3.32V46.68A3.32,3.32,0,0,0,3.4,50H33a3.33,3.33,0,0,0,3.33-3.32V13.18L23.13,0Z"/><path class="cls-2" d="M23.13,0h0V9.94a3.25,3.25,0,0,0,3.26,3.25h9.94Z"/><path class="cls-2" d="M23.13,0h0V9.94a3.25,3.25,0,0,0,3.26,3.25h9.94Z"/><line class="cls-4" x1="35.78" y1="13.4" x2="22.92" y2="0.54"/><path class="cls-5" d="M23.13.75h0v9.37a3.07,3.07,0,0,0,3.07,3.07h9.38"/><line class="cls-6" x1="30.07" y1="19.2" x2="23.79" y2="19.2"/><line class="cls-6" x1="30.07" y1="14.63" x2="23.79" y2="14.63"/><line class="cls-6" x1="9.92" y1="40.99" x2="10.68" y2="40.35"/><line class="cls-7" x1="12.19" y1="39.06" x2="20.52" y2="31.98"/><line class="cls-6" x1="21.27" y1="31.34" x2="22.04" y2="30.69"/><line class="cls-6" x1="34.16" y1="40.99" x2="33.39" y2="40.35"/><line class="cls-7" x1="31.88" y1="39.06" x2="23.56" y2="31.98"/><line class="cls-6" x1="22.8" y1="31.34" x2="22.04" y2="30.69"/><line class="cls-6" x1="34.16" y1="40.99" x2="34.92" y2="40.35"/><line class="cls-8" x1="36.45" y1="39.06" x2="44.86" y2="31.98"/><line class="cls-6" x1="45.63" y1="31.34" x2="46.39" y2="30.69"/><circle class="cls-9" cx="9.92" cy="40.99" r="3.04"/><path class="cls-10" d="M9.92,38a3,3,0,0,0-1,.18,3,3,0,0,1,0,5.73,3,3,0,0,0,1,.18,3,3,0,0,0,0-6.09Z"/><circle class="cls-9" cx="22.04" cy="30.69" r="3.04"/><path class="cls-10" d="M22,27.65a3,3,0,0,0-1,.18,3,3,0,0,1,0,5.73,3,3,0,0,0,1,.18,3,3,0,0,0,0-6.09Z"/><circle class="cls-9" cx="34.16" cy="40.99" r="3.04"/><path class="cls-10" d="M34.16,38a3,3,0,0,0-1,.18,3,3,0,0,1,0,5.73,3,3,0,0,0,1,.18,3,3,0,0,0,0-6.09Z"/><circle class="cls-9" cx="46.39" cy="30.69" r="3.04"/><path class="cls-10" d="M46.39,27.65a3.05,3.05,0,0,0-1,.18,3,3,0,0,1,0,5.73,3,3,0,1,0,1-5.91Z"/><circle class="cls-6" cx="9.92" cy="40.99" r="3.04"/><circle class="cls-6" cx="22.04" cy="30.69" r="3.04"/><circle class="cls-6" cx="34.16" cy="40.99" r="3.04"/><circle class="cls-6" cx="46.39" cy="30.69" r="3.04"/><path class="cls-11" d="M20.18,13.17H13.11V6.1a7.25,7.25,0,0,1,4.95,2.05A7.3,7.3,0,0,1,20.18,13.17Z"/><path class="cls-12" d="M18.06,8.15A7.25,7.25,0,0,0,13.11,6.1v.31a7.09,7.09,0,0,1,2.95,1.74,7.3,7.3,0,0,1,2.12,5h2A7.3,7.3,0,0,0,18.06,8.15Z"/><path class="cls-13" d="M13.08,13.17l-5,5.07a7.44,7.44,0,0,1-1-8.69,7.73,7.73,0,0,1,6-3.43Z"/><path class="cls-14" d="M13.05,13.28l7.13,0a7.44,7.44,0,0,1-5.42,6.86,7.73,7.73,0,0,1-6.69-1.84Z"/><path class="cls-15" d="M18.18,13.25a7.44,7.44,0,0,1-5.42,6.85c-.2,0-.4.08-.6.11a6.43,6.43,0,0,0,2.6-.11,7.44,7.44,0,0,0,5.42-6.86Z"/><circle class="cls-5" cx="13.11" cy="13.19" r="7.07"/><line class="cls-5" x1="13.11" y1="6.12" x2="13.11" y2="13.19"/><line class="cls-5" x1="20.18" y1="13.19" x2="13.11" y2="13.19"/><line class="cls-5" x1="13.34" y1="12.96" x2="8.07" y2="18.24"/></g></svg>