<svg xmlns="http://www.w3.org/2000/svg" viewBox="0 0 50 50"><defs><style>.cls-1{fill:#45d7dc;}.cls-2{fill:#00bcbc;}.cls-18,.cls-3,.cls-9{fill:none;stroke:#3f464a;stroke-miterlimit:10;}.cls-3,.cls-9{stroke-linecap:round;}.cls-3{stroke-dasharray:4 3;}.cls-4{fill:#fb6375;}.cls-5{fill:#f72b60;}.cls-6{fill:#fcefd6;}.cls-7{fill:#ffe9b5;}.cls-8{fill:#a8cccf;}.cls-10{fill:#fff;}.cls-11{fill:#ff9268;}.cls-12{fill:#fd7251;}.cls-13{fill:#b4fcc2;}.cls-14{fill:#86ea96;}.cls-15{fill:#ffcb6c;}.cls-16{fill:#edb256;}.cls-17{fill:#7edff1;}</style></defs><g id="Layer_13" data-name="Layer 13"><g id="Layer_31" data-name="Layer 31"><circle class="cls-1" cx="6.26" cy="43.82" r="5.67"/><path class="cls-2" d="M6.26,38.15a4.73,4.73,0,0,0-.65,0,5.67,5.67,0,0,1,0,11.26c.22,0,.43,0,.65,0a5.67,5.67,0,0,0,0-11.34Z"/><circle class="cls-3" cx="6.26" cy="43.82" r="5.67"/><circle class="cls-4" cx="36.22" cy="9.7" r="9.18"/><path class="cls-5" d="M36.22.53a9,9,0,0,0-1,.06,9.17,9.17,0,0,1,0,18.22,9,9,0,0,0,1,.07,9.18,9.18,0,0,0,0-18.35Z"/><circle class="cls-3" cx="36.22" cy="9.7" r="9.18"/><circle class="cls-6" cx="9.63" cy="17.69" r="9.04"/><path class="cls-7" d="M9.63,8.65a8.77,8.77,0,0,0-1,.06,9,9,0,0,1,0,18,8.77,8.77,0,0,0,1,.06,9,9,0,1,0,0-18.08Z"/><circle class="cls-3" cx="9.63" cy="17.69" r="9.04"/><path class="cls-8" d="M48.62,48.61a3,3,0,0,1-4.25,0Q38.74,42.34,33.1,36.08h0A5.42,5.42,0,0,1,34,34a2.92,2.92,0,0,1,2.24-.87l12.4,11.27A3,3,0,0,1,48.62,48.61Z"/><path class="cls-9" d="M48.62,48.61a3,3,0,0,1-4.25,0Q38.74,42.34,33.1,36.08h0A5.42,5.42,0,0,1,34,34a2.92,2.92,0,0,1,2.24-.87l12.4,11.27A3,3,0,0,1,48.62,48.61Z"/><circle class="cls-10" cx="24.99" cy="24.95" r="16.31"/><rect class="cls-11" x="14.41" y="27.1" width="6.38" height="12.37"/><rect class="cls-12" x="17.59" y="27.13" width="3.19" height="12.34"/><rect class="cls-9" x="14.41" y="26.99" width="6.38" height="12.48" rx="0.5"/><rect class="cls-13" x="20.78" y="15.6" width="6.38" height="24.84"/><rect class="cls-14" x="23.97" y="15.65" width="3.19" height="24.78"/><rect class="cls-9" x="20.78" y="15.37" width="6.38" height="25.06" rx="0.5"/><rect class="cls-15" x="27.16" y="21.53" width="6.38" height="18.91"/><rect class="cls-16" x="30.35" y="21.57" width="3.19" height="18.86"/><rect class="cls-9" x="27.16" y="21.36" width="6.38" height="19.07" rx="0.5"/><path class="cls-17" d="M25,6.83A18.13,18.13,0,1,0,43.11,25,18.13,18.13,0,0,0,25,6.83Zm0,33.25A15.13,15.13,0,1,1,40.12,25,15.12,15.12,0,0,1,25,40.08Z"/><circle class="cls-18" cx="24.99" cy="24.95" r="15.13" transform="translate(-3.67 4.32) rotate(-9.22)"/><line class="cls-9" x1="12.63" y1="11.68" x2="12.63" y2="11.68"/><path class="cls-9" d="M11,13.48a18.12,18.12,0,1,0,25.5-2.57"/><path class="cls-9" d="M10.22,35.45a18.13,18.13,0,1,0,4.27-25.27"/></g></g></svg>